<svg width="168" height="169" viewBox="0 0 168 169" fill="none" xmlns="http://www.w3.org/2000/svg">
<path d="M81.285 48.0738C90.0186 38.0645 97.9674 30.116 94.2382 26.0924C90.5089 22.0688 30.1451 44.4793 33.552 50.3306C35.5824 53.8177 89.5121 92.9557 94.8311 96.1029C101.081 99.8007 111.116 95.4708 110.233 88.6017C109.35 81.7326 102.088 25.5608 102.088 25.5608C102.088 25.5608 106.21 31.0971 107.486 34.924" stroke="white" stroke-width="4.44419" stroke-linecap="round" stroke-linejoin="round"/>
<path d="M122.794 93.4512C121.911 86.5821 114.65 30.4103 114.65 30.4103C114.65 30.4103 118.771 35.9466 120.047 39.7735" stroke="white" stroke-width="4.44419" stroke-linecap="round" stroke-linejoin="round"/>
<path d="M99.3412 119.219C99.3412 97.4574 92.0286 49.1823 92.0286 49.1823C92.0286 49.1823 96.1502 54.7185 97.426 58.5454" stroke="white" stroke-width="4.44419" stroke-linecap="round" stroke-linejoin="round"/>
<path d="M77.2481 51.5902C75.9724 47.763 71.8508 42.2271 71.8508 42.2271C71.8508 42.2271 73.9253 67.455 85.9954 72.4597C53.633 56.7832 38.2302 108.081 24.2466 93.0674C14.2692 82.3546 32.1951 67.3081 32.1951 67.3081" stroke="white" stroke-width="4.44419" stroke-linecap="round" stroke-linejoin="round"/>
<path d="M132.706 49.7831C131.43 45.9559 127.308 40.4199 127.308 40.4199C127.308 40.4199 134.4 103.052 135.911 119.219C136.631 126.922 122.353 130.455 117.054 117.501C111.755 104.548 116.612 100.868 119.851 100.868C123.089 100.868 128.388 111.663 119.851 116.667C111.313 121.672 97.0841 125.303 92.7665 130.308C88.4489 135.312 80.8927 146.794 75.8881 146.794C70.8834 146.794 61.0705 141.396 72.2572 119.219" stroke="white" stroke-width="4.44419" stroke-linecap="round" stroke-linejoin="round"/>
<path d="M145.07 109.7C144.187 98.2187 138.201 51.7047 138.201 51.7047C138.201 51.7047 142.323 57.241 143.598 61.0679" stroke="white" stroke-width="4.44419" stroke-linecap="round" stroke-linejoin="round"/>
<path d="M48.9755 31.9803C55.0106 28.2269 67.4485 25.8717 73.9253 20.7932" stroke="white" stroke-width="4.44419" stroke-linecap="round" stroke-linejoin="round"/>
<path d="M31.4346 95.8532C23.3877 104.695 25.6449 122.653 35.0655 119.71C38.5833 118.61 42.819 111.293 49.8831 108.13C61.7362 102.823 76.8978 100.117 75.9857 91.6441C74.8083 80.7024 64.308 74.338 64.308 74.338" stroke="white" stroke-width="4.44419" stroke-linecap="round" stroke-linejoin="round"/>
<path d="M90.3623 102.242C85.3332 100.022 83.6896 97.4569 83.6896 97.4569C87.7622 106.56 90.902 112.104 91.0004 116.471C91.0987 120.838 68.5776 134.797 58.9117 134.797C47.6511 134.797 39.4142 126.706 42.6125 113.272" stroke="white" stroke-width="4.44419" stroke-linecap="round" stroke-linejoin="round"/>
<path d="M35.4729 52.2482C28.0735 55.6789 23.485 71.9073 29.1281 70.2697" stroke="white" stroke-width="4.44419" stroke-linecap="round" stroke-linejoin="round"/>
<path d="M84 159.927C125.559 159.927 159.25 126.236 159.25 84.6769C159.25 43.1175 125.559 9.42688 84 9.42688C42.4406 9.42688 8.75 43.1175 8.75 84.6769C8.75 126.236 42.4406 159.927 84 159.927Z" stroke="white" stroke-width="4.44419" stroke-linecap="round" stroke-linejoin="round"/>
</svg>
