<svg width="168" height="147" viewBox="0 0 168 147" fill="none" xmlns="http://www.w3.org/2000/svg">
<path d="M68.884 66.1161C62.3782 66.1161 57.4034 71.0909 57.4034 77.5967C57.4034 84.1025 62.3782 89.0773 68.884 89.0773C75.3897 89.0773 80.3646 84.1025 80.3646 77.5967C80.3646 71.0913 75.3894 66.1161 68.884 66.1161ZM68.884 81.4238C66.5878 81.4238 65.0572 79.8929 65.0572 77.597C65.0572 75.3012 66.5878 73.7699 68.884 73.7699C71.1802 73.7699 72.7107 75.3008 72.7107 77.5967C72.7107 79.8926 71.1798 81.4238 68.884 81.4238Z" fill="white"/>
<path d="M99.4987 66.1161C92.993 66.1161 88.0181 71.0909 88.0181 77.5967C88.0181 84.1025 92.993 89.0773 99.4987 89.0773C106.005 89.0773 110.979 84.1025 110.979 77.5967C110.98 71.0913 106.005 66.1161 99.4987 66.1161ZM99.4987 81.4238C97.2026 81.4238 95.672 79.8929 95.672 77.597C95.672 75.3012 97.2029 73.7699 99.4987 73.7699C101.795 73.7699 103.326 75.3008 103.326 77.5967C103.326 79.8926 101.795 81.4238 99.4987 81.4238Z" fill="white"/>
<path d="M38.2689 66.1161C31.7631 66.1161 26.7883 71.0909 26.7883 77.5967C26.7883 84.1025 31.7631 89.0773 38.2689 89.0773C44.7746 89.0773 49.7495 84.1025 49.7495 77.5967C49.7495 71.0913 44.7743 66.1161 38.2689 66.1161ZM38.2689 81.4238C35.9727 81.4238 34.4421 79.8929 34.4421 77.597C34.4421 75.3012 35.9727 73.7699 38.2689 73.7699C40.5651 73.7699 42.0956 75.3008 42.0956 77.5967C42.0956 79.8926 40.5647 81.4238 38.2689 81.4238Z" fill="white"/>
<path d="M146.57 83.7201C145.039 85.251 145.039 87.5468 146.187 89.0777C146.952 89.843 148.1 90.2258 148.866 90.2258C149.631 90.2258 150.779 89.843 151.545 89.0777C162.26 79.5105 168 66.8818 168 54.2531C168 24.7861 137.002 0.676758 99.116 0.676758C73.4758 0.676758 50.132 11.3921 38.2686 28.9957C15.3074 38.1801 0 57.3145 0 77.5968C0 90.2255 5.74047 102.854 16.4555 112.421C17.9864 113.952 20.2822 113.57 21.8131 112.039C23.344 110.508 22.9612 108.212 21.4303 106.681C12.6284 98.6446 7.65352 88.3121 7.65352 77.5968C7.65352 59.9932 21.4303 43.9202 42.4782 36.2664C50.8973 33.2049 59.6993 31.674 68.8837 31.674C102.56 31.674 130.114 52.339 130.114 77.5965C130.114 86.3984 127.052 94.8175 120.929 102.089C109.449 115.483 90.3144 123.519 68.8837 123.519C65.0569 123.519 60.8474 123.136 57.0203 122.754C50.8973 121.989 44.3916 123.137 39.4167 126.198L22.9612 135.765V123.52C22.9612 121.223 21.4303 119.693 19.1345 119.693C16.8386 119.693 15.3077 121.224 15.3077 123.52V142.654C15.3077 144.185 16.073 145.333 17.2211 146.098C17.9864 146.481 18.3692 146.481 19.1345 146.481C19.8998 146.481 20.6654 146.481 21.0479 146.098L43.2438 132.704C46.6881 130.408 51.2801 129.643 55.8725 130.408C60.0821 131.173 64.2916 131.173 68.884 131.173C91.08 131.173 111.363 123.137 124.374 109.36L147.335 123.137C147.718 123.52 148.483 123.52 149.248 123.52C150.014 123.52 150.396 123.52 151.162 123.137C152.31 122.371 153.075 121.223 153.075 119.692V100.558C153.075 98.2618 151.544 96.7312 149.248 96.7312C146.952 96.7312 145.422 98.2622 145.422 100.558V112.804L129.349 103.237C134.706 95.5832 137.768 86.7815 137.768 77.5968C137.768 48.1298 106.77 24.0205 68.8837 24.0205C63.1432 24.0205 57.4031 24.7858 52.0454 25.5514C63.526 15.2188 81.1296 8.71309 99.4988 8.71309C133.175 8.71309 160.729 29.3781 160.729 54.6355C160.729 65.3509 155.754 75.6834 146.57 83.7201Z" fill="white"/>
</svg>
