<svg width="168" height="169" viewBox="0 0 168 169" fill="none" xmlns="http://www.w3.org/2000/svg">
<g clip-path="url(#clip0_44_1159)">
<path d="M131.25 157.981C125.02 157.981 118.93 156.134 113.75 152.673C108.569 149.211 104.532 144.292 102.148 138.536C99.7636 132.78 99.1398 126.446 100.355 120.336C101.571 114.225 104.571 108.613 108.976 104.207C113.381 99.802 118.994 96.8019 125.105 95.5865C131.215 94.371 137.549 94.9948 143.305 97.379C149.06 99.7632 153.98 103.801 157.441 108.981C160.903 114.161 162.75 120.251 162.75 126.481C162.74 134.833 159.419 142.839 153.513 148.744C147.608 154.65 139.601 157.972 131.25 157.981ZM131.25 105.481C127.097 105.481 123.036 106.713 119.583 109.02C116.13 111.328 113.438 114.608 111.849 118.445C110.259 122.282 109.843 126.505 110.653 130.578C111.464 134.652 113.464 138.394 116.401 141.33C119.338 144.267 123.079 146.267 127.153 147.078C131.227 147.888 135.449 147.472 139.286 145.883C143.124 144.293 146.403 141.602 148.711 138.148C151.018 134.695 152.25 130.635 152.25 126.481C152.244 120.914 150.029 115.576 146.092 111.639C142.155 107.702 136.818 105.487 131.25 105.481Z" fill="white"/>
<path d="M36.75 157.981C30.5199 157.981 24.4297 156.134 19.2495 152.673C14.0694 149.211 10.032 144.292 7.64779 138.536C5.26363 132.78 4.63983 126.446 5.85526 120.336C7.0707 114.225 10.0708 108.613 14.4761 104.207C18.8815 99.802 24.4943 96.8019 30.6047 95.5865C36.7151 94.371 43.0487 94.9948 48.8045 97.379C54.5604 99.7632 59.48 103.801 62.9413 108.981C66.4026 114.161 68.25 120.251 68.25 126.481C68.2404 134.833 64.9186 142.839 59.0133 148.744C53.108 154.65 45.1014 157.972 36.75 157.981ZM36.75 105.481C32.5966 105.481 28.5365 106.713 25.083 109.02C21.6296 111.328 18.938 114.608 17.3485 118.445C15.7591 122.282 15.3432 126.505 16.1535 130.578C16.9638 134.652 18.9639 138.394 21.9008 141.33C24.8377 144.267 28.5795 146.267 32.6531 147.078C36.7267 147.888 40.9491 147.472 44.7864 145.883C48.6236 144.293 51.9034 141.602 54.2109 138.148C56.5184 134.695 57.75 130.635 57.75 126.481C57.7437 120.914 55.5292 115.576 51.5923 111.639C47.6554 107.702 42.3176 105.487 36.75 105.481Z" fill="white"/>
<path d="M89.25 142.231H78.75V107.654L50.3207 79.2312C48.3542 77.2599 47.2498 74.5891 47.2498 71.8046C47.2498 69.0201 48.3542 66.3493 50.3207 64.3779L74.3967 40.3019C76.3675 38.3356 79.0378 37.2313 81.8218 37.2313C84.6058 37.2313 87.2761 38.3356 89.2469 40.3019L112.424 63.4812H141.75V73.9775L108.073 73.9812L81.8228 47.7312L57.75 71.8019L89.25 103.302V142.231Z" fill="white"/>
<path d="M112.875 42.4812C109.241 42.4812 105.688 41.4035 102.666 39.3845C99.6447 37.3654 97.2895 34.4956 95.8987 31.138C94.508 27.7804 94.1441 24.0858 94.8531 20.5214C95.5621 16.957 97.3121 13.6829 99.8819 11.1131C102.452 8.54333 105.726 6.79328 109.29 6.08428C112.855 5.37528 116.549 5.73916 119.907 7.12992C123.264 8.52068 126.134 10.8759 128.153 13.8976C130.172 16.9194 131.25 20.472 131.25 24.1062C131.244 28.9778 129.306 33.6481 125.862 37.0929C122.417 40.5376 117.747 42.4754 112.875 42.4812ZM112.875 16.2312C111.317 16.2312 109.795 16.6931 108.5 17.5584C107.205 18.4237 106.196 19.6536 105.599 21.0926C105.003 22.5315 104.847 24.1149 105.151 25.6425C105.455 27.1701 106.205 28.5733 107.307 29.6747C108.408 30.776 109.811 31.526 111.339 31.8299C112.866 32.1338 114.45 31.9778 115.889 31.3818C117.328 30.7857 118.558 29.7764 119.423 28.4813C120.288 27.1863 120.75 25.6637 120.75 24.1062C120.748 22.0184 119.917 20.0167 118.441 18.5404C116.965 17.064 114.963 16.2336 112.875 16.2312Z" fill="white"/>
</g>
<defs>
<clipPath id="clip0_44_1159">
<rect width="168" height="168" fill="white" transform="translate(0 0.481201)"/>
</clipPath>
</defs>
</svg>
