<svg width="168" height="169" viewBox="0 0 168 169" fill="none" xmlns="http://www.w3.org/2000/svg">
<path d="M84.0018 61.8104C98.177 61.808 109.665 50.3209 109.667 36.1448C109.665 21.9683 98.1758 10.4836 84.0018 10.4812C69.8233 10.4836 58.3347 21.9683 58.3323 36.1448C58.335 50.3206 69.8233 61.8077 84.0018 61.8104ZM71.033 23.1804C74.363 19.8564 78.9254 17.814 84.0021 17.8113C89.076 17.8137 93.6373 19.8564 96.9673 23.1804C100.291 26.5092 102.335 31.069 102.338 36.1448C102.335 41.2199 100.29 45.78 96.9664 49.1088C93.6364 52.4328 89.0763 54.4779 84.0021 54.4802C78.9254 54.4779 74.3642 52.4328 71.033 49.1088C67.709 45.78 65.6654 41.2199 65.6628 36.1448C65.6654 31.069 67.709 26.5089 71.033 23.1804Z" fill="white"/>
<path d="M139.789 142.959L138.123 106.983L138.121 106.974C137.723 98.5599 135.098 91.604 131.092 86.1493C125.072 77.9456 116.227 73.1803 107.544 70.41C98.8327 67.6443 90.1791 66.8403 84.0015 66.8356C75.7688 66.8544 63.1106 68.2435 51.8322 73.8986C46.2042 76.7335 40.9106 80.685 36.9089 86.1493C32.9038 91.604 30.2779 98.5573 29.8781 106.974L29.8769 106.983L28.2101 142.959H8.51984V158.481H159.48V142.959H139.789ZM119.55 142.959L117.596 112.81C117.509 111.462 116.345 110.44 115 110.529C113.653 110.617 112.631 111.779 112.718 113.125L114.653 142.959H86.566V135.595C95.2542 134.345 101.958 126.855 101.958 117.823V113.815C101.958 112.397 100.81 111.247 99.3918 111.247C97.9768 111.247 96.829 112.397 96.829 113.815V117.823C96.829 124.896 91.076 130.649 84.0009 130.649C76.9285 130.649 71.1704 124.896 71.1704 117.823V113.815C71.1704 112.397 70.0253 111.247 68.61 111.247C67.1868 111.247 66.0437 112.397 66.0437 113.815V117.823C66.0437 126.855 72.7428 134.345 81.4357 135.595V142.959H53.348L55.2819 113.125C55.3688 111.779 54.3478 110.617 53.0007 110.529C51.6547 110.44 50.4915 111.462 50.4045 112.81L48.4503 142.959H35.5494L37.2005 107.322L37.1993 107.331C37.5585 100.208 39.6678 94.8107 42.8247 90.48C47.5493 84.0038 54.9145 79.8639 62.6825 77.3966C70.4233 74.9243 78.4646 74.1607 84.0018 74.1657C91.3894 74.1465 103.203 75.545 112.871 80.4462C117.717 82.8872 122.015 86.1588 125.178 90.4803C128.334 94.811 130.442 100.206 130.8 107.331L130.799 107.322L132.45 142.96H119.55V142.959Z" fill="white"/>
<path d="M84.0006 93.4435C79.4084 93.4435 75.6848 97.1685 75.6848 101.762V117.205C75.6848 121.801 79.4084 125.521 84.0006 125.521C88.5905 125.521 92.3188 121.801 92.3188 117.205V101.762C92.3188 97.1685 88.5905 93.4435 84.0006 93.4435Z" fill="white"/>
</svg>
