<svg width="22" height="22" viewBox="0 0 22 22" fill="none" xmlns="http://www.w3.org/2000/svg">
<path d="M10.9345 22C4.89576 22 0 17.1043 0 11.0656C0 5.02692 4.89576 0.131224 10.9345 0.131224C16.9733 0.131224 21.8691 5.02692 21.8691 11.0656C21.8691 17.1043 16.9733 22 10.9345 22ZM7.35565 20.2228C6.29064 19.0645 5.44723 17.3984 4.93147 15.4393H2.12493C3.21112 17.6117 5.07725 19.3294 7.35565 20.2228ZM1.09345 11.0656C1.09345 12.2188 1.31031 13.3177 1.677 14.3459H4.68801C4.49119 13.3083 4.37381 12.2119 4.37381 11.0656C4.37381 9.91934 4.49119 8.82295 4.68762 7.7853H1.677C1.31031 8.81351 1.09345 9.91238 1.09345 11.0656ZM2.12493 6.69186H4.93147C5.44757 4.73276 6.29064 3.06677 7.35565 1.90845C5.07725 2.80178 3.21112 4.51954 2.12493 6.69186ZM10.3878 1.27643C8.51654 1.62889 6.89059 3.764 6.05845 6.69186H10.3878V1.27643ZM10.3878 7.7853H5.79786C5.58754 8.81749 5.46726 9.92079 5.46726 11.0656C5.46726 12.2104 5.58754 13.3137 5.79786 14.3459H10.3878V7.7853ZM10.3878 15.4394H6.05845C6.89059 18.3672 8.51654 20.5024 10.3878 20.8548V15.4394ZM19.7441 15.4394H16.9376C16.4215 17.3985 15.5784 19.0645 14.5134 20.2228C16.7918 19.3294 18.6579 17.6117 19.7441 15.4394ZM11.4813 20.8548C13.3525 20.5023 14.9785 18.3672 15.8106 15.4394H11.4813V20.8548ZM11.4813 14.3459H16.0712C16.2815 13.3137 16.4018 12.2104 16.4018 11.0656C16.4018 9.92079 16.2815 8.81749 16.0712 7.7853H11.4813V14.3459ZM11.4813 1.27643V6.69186H15.8106C14.9785 3.764 13.3525 1.62885 11.4813 1.27643ZM14.5134 1.90845C15.5784 3.06711 16.4215 4.73281 16.9376 6.69186H19.7441C18.6579 4.51954 16.7918 2.80178 14.5134 1.90845ZM17.181 7.7853C17.3779 8.82295 17.4952 9.91934 17.4952 11.0656C17.4952 12.2119 17.3779 13.3083 17.1814 14.3459H20.1924C20.5587 13.3177 20.7756 12.2188 20.7756 11.0656C20.7756 9.91238 20.5587 8.81351 20.1921 7.7853H17.181Z" fill="black"/>
</svg>
