<svg width="53" height="51" viewBox="0 0 53 51" fill="none" xmlns="http://www.w3.org/2000/svg">
<path d="M26.687 0C12.391 0 0.756682 11.2057 0.751642 24.9773C0.748281 29.3813 1.94465 33.6794 4.21305 37.4651L0.533203 50.4082L14.2831 46.9351C18.1078 48.9358 22.3605 49.9794 26.6769 49.9764H26.687C40.983 49.9764 52.6173 38.769 52.6224 24.9974C52.6257 18.3268 49.9305 12.0476 45.0325 7.32768C40.1361 2.60611 33.6249 0.00168027 26.687 0ZM26.687 45.7572H26.6786C22.8106 45.7572 19.0165 44.7558 15.7063 42.8638L14.9165 42.4135L6.76038 44.4735L8.93804 36.8115L8.42555 36.0268C6.27293 32.7438 5.12702 28.9031 5.12881 24.9773C5.13385 13.5296 14.8056 4.21917 26.6954 4.21917C32.4521 4.22085 37.8643 6.38336 41.9357 10.3068C46.007 14.2302 48.2469 19.4475 48.2435 24.9958C48.2385 36.4435 38.5684 45.7572 26.6853 45.7572H26.687ZM38.5112 30.2063C37.8626 29.8954 34.6768 28.3849 34.082 28.1748C33.4888 27.9682 33.057 27.8606 32.6252 28.4857C32.195 29.1108 30.9516 30.5171 30.5752 30.9322C30.1955 31.3489 29.8174 31.3993 29.1688 31.0884C28.5202 30.7759 26.4316 30.1172 23.9582 27.99C22.0309 26.3366 20.7304 24.2934 20.3523 23.6667C19.9742 23.0433 20.312 22.7056 20.6363 22.3947C20.9269 22.1175 21.2849 21.6671 21.6075 21.3025C21.9301 20.9379 22.0376 20.6775 22.2561 20.2608C22.4711 19.8457 22.3636 19.4794 22.2006 19.1686C22.0376 18.8544 20.7438 15.7828 20.2011 14.5344C19.6768 13.3179 19.1425 13.4808 18.7442 13.4607C18.3662 13.4439 17.936 13.4388 17.5008 13.4388C17.0723 13.4388 16.3683 13.5951 15.7735 14.2202C15.1803 14.8452 13.5051 16.3541 13.5051 19.4257C13.5051 22.4989 15.8273 25.4662 16.1515 25.883C16.4758 26.298 20.722 32.6041 27.223 35.3093C28.7689 35.9495 29.9753 36.3343 30.918 36.6233C32.4706 37.0988 33.8837 37.0299 34.9994 36.8703C36.2428 36.6905 38.8339 35.3614 39.3716 33.9046C39.9126 32.4478 39.9126 31.1977 39.7513 30.9372C39.5934 30.6768 39.1598 30.5205 38.5112 30.2063V30.2063Z" fill="white"/>
</svg>
