<svg width="292" height="305" viewBox="0 0 292 305" fill="none" xmlns="http://www.w3.org/2000/svg">
<path d="M281.134 128.441C281.115 128.323 281.036 128.225 281.016 128.107C280.879 127.546 280.702 127.064 280.475 126.612L280.495 126.651C279.836 125.471 279.059 124.449 278.165 123.554L277.929 123.446C277.171 123.052 276.267 122.679 275.333 122.364L275.195 122.325L274.959 122.236L196.292 110.141C195.948 110.082 195.555 110.053 195.152 110.053C191.081 110.053 187.777 113.357 187.777 117.428C187.777 121.115 190.481 124.173 194.021 124.714L194.06 124.724L228.123 129.965L146.005 144.184L63.8966 129.965L97.9592 124.724C101.558 124.193 104.282 121.125 104.282 117.428C104.282 113.357 100.978 110.053 96.9071 110.053C96.4842 110.053 96.0712 110.092 95.6681 110.161L95.7074 110.151L16.7655 122.354C16.2542 122.492 15.8215 122.649 15.3987 122.856L15.438 122.836C14.9169 123.013 14.4645 123.229 14.0319 123.485L14.0614 123.465L13.8352 123.574C13.5894 123.8 13.373 124.046 13.1665 124.301L13.1567 124.311C12.7535 124.665 12.3897 125.049 12.075 125.471L12.0652 125.491C11.8685 125.825 11.6817 126.219 11.5244 126.622L11.5047 126.671C11.2982 127.084 11.1212 127.556 10.9934 128.058L10.9835 128.107C10.954 128.235 10.8754 128.333 10.8557 128.461L1.02239 194.845C0.973226 195.16 0.943726 195.534 0.943726 195.907C0.943726 199.457 3.45122 202.427 6.79455 203.135L6.84372 203.145L20.984 206.036C20.7972 206.567 20.6595 207.186 20.6202 207.825V207.845V281.9C20.6202 285.646 23.4129 288.754 27.0413 289.216H27.0807L143.812 303.641C144.461 303.887 145.208 304.044 145.985 304.084H146.005C146.192 304.084 146.349 303.985 146.536 303.976L146.929 304.025L264.929 289.216C268.587 288.744 271.38 285.656 271.38 281.91V207.845C271.33 207.186 271.203 206.567 270.996 205.977L271.016 206.026L285.156 203.135C288.549 202.427 291.056 199.467 291.056 195.917C291.056 195.534 291.027 195.17 290.968 194.806L290.977 194.845L281.134 128.441ZM24.3569 138.078L135.424 157.302L112.178 209.605L16.6574 190.076L24.3569 138.078ZM35.38 208.956L115.03 225.25C115.472 225.348 115.984 225.398 116.495 225.398C119.484 225.398 122.061 223.628 123.231 221.071L123.251 221.022L138.63 186.408V288.341L35.38 275.38V208.956ZM256.63 275.39L153.38 288.547V186.399L168.759 221.012C169.939 223.608 172.515 225.388 175.505 225.388C176.036 225.388 176.537 225.329 177.039 225.221L176.99 225.23L256.639 208.937L256.63 275.39ZM179.841 209.615L156.585 157.312L267.653 138.088L275.352 190.086L179.841 209.615Z" fill="url(#paint0_linear_1140_3054)"/>
<path d="M166.667 6.91602C185.374 6.91602 197.944 24.5017 197.944 40.9071C197.944 74.1311 145.777 101.336 144.833 101.336C143.888 101.336 91.7216 74.1311 91.7216 40.9071C91.7216 24.5017 104.291 6.91602 122.998 6.91602C133.738 6.91602 140.761 12.2861 144.833 17.0071C148.905 12.2861 155.927 6.91602 166.667 6.91602Z" stroke="#1EAAC8" stroke-width="12.2491" stroke-linecap="round" stroke-linejoin="round"/>
<defs>
<linearGradient id="paint0_linear_1140_3054" x1="146" y1="110.053" x2="146" y2="304.084" gradientUnits="userSpaceOnUse">
<stop stop-color="#1EAAC8"/>
<stop offset="1" stop-color="#007690"/>
</linearGradient>
</defs>
</svg>
