<svg width="512" height="512" viewBox="0 0 512 512" fill="none" xmlns="http://www.w3.org/2000/svg">
<path d="M428.651 305.088V180.532C428.651 161.387 422.678 143.098 411.38 127.642L334.256 22.136L333.914 21.684C315.731 -1.60005 281.992 -5.75305 258.706 12.429C257.769 13.16 256.875 13.927 256.001 14.706C255.123 13.925 254.229 13.159 253.296 12.431C242.045 3.64595 228.009 -0.225048 213.778 1.52395C199.546 3.27695 186.869 10.435 178.086 21.686L100.619 127.643C89.3219 143.099 83.3489 161.389 83.3489 180.534V305.089L8.37891 380.059L139.221 510.901L214.996 435.125L214.852 434.982L242.824 411.005C247.757 406.777 252.164 402.068 255.999 396.975C259.834 402.066 264.241 406.777 269.174 411.005L297.145 434.982L297.002 435.125L372.778 510.901L503.62 380.057L428.651 305.088ZM139.22 460.383L58.8959 380.057L84.1539 354.798L164.478 435.124L139.22 460.383ZM238.14 343.526C238.14 359.063 231.374 373.772 219.578 383.883L189.519 409.647L119.07 339.196V180.532C119.07 169.017 122.662 158.018 129.456 148.723L206.386 43.484C209.291 39.861 213.458 37.553 218.142 36.976C222.902 36.389 227.581 37.67 231.311 40.583C235.04 43.494 237.417 47.721 238.003 52.483C238.59 57.246 237.309 61.923 234.396 65.652L166.698 159.096V295.22H202.419V209.49C202.419 199.642 210.431 191.63 220.279 191.63C230.127 191.63 238.139 199.642 238.139 209.49L238.14 343.526ZM256 169.596C246.513 161.092 233.992 155.909 220.279 155.909C217.712 155.909 215.191 156.102 212.719 156.453L256 96.699L299.281 156.452C296.81 156.102 294.288 155.909 291.721 155.909C278.008 155.909 265.487 161.094 256 169.596ZM292.423 383.883C280.626 373.772 273.86 359.063 273.86 343.527V209.489C273.86 199.641 281.872 191.629 291.72 191.629C301.568 191.629 309.58 199.641 309.58 209.489V295.219H345.301V159.096L277.991 66.167L277.604 65.651C271.542 57.888 272.927 46.643 280.689 40.582C288.39 34.568 299.517 35.885 305.614 43.484L382.543 148.723C389.338 158.019 392.931 169.017 392.931 180.532V339.197L322.481 409.647L292.423 383.883ZM347.519 435.123L427.845 354.797L453.104 380.056L372.778 460.382L347.519 435.123Z" fill="#1EAAC8"/>
<path d="M59.535 116.224H0V151.945H59.535V116.224Z" fill="#1EAAC8"/>
<path d="M21.6174 25.9506L9.71191 59.6274L65.8406 79.4701L77.746 45.7933L21.6174 25.9506Z" fill="#1EAAC8"/>
<path d="M512 116.224H452.465V151.945H512V116.224Z" fill="#1EAAC8"/>
<path d="M490.358 25.9553L434.23 45.7976L446.136 79.4735L502.263 59.6311L490.358 25.9553Z" fill="#1EAAC8"/>
</svg>
