<svg width="71" height="71" viewBox="0 0 71 71" fill="none" xmlns="http://www.w3.org/2000/svg">
<path fill-rule="evenodd" clip-rule="evenodd" d="M44.9983 34.7405C46.0529 39.9954 47.2689 42.4595 50.6492 45.8937H44.9983V34.7405Z" fill="#E13C64"/>
<path fill-rule="evenodd" clip-rule="evenodd" d="M44.9611 30.127C44.9611 30.127 44.9611 30.127 44.9611 30.127V30.127C44.2229 33.8055 43.3717 35.5303 41.0055 37.9343H44.9611V37.9343H48.9167C46.5505 35.5303 45.6993 33.8054 44.9611 30.127V30.127C44.9611 30.127 44.9611 30.127 44.9611 30.127Z" fill="#E13C64"/>
<path d="M44.9983 39.5044C46.0184 44.588 47.196 47.8775 49.3162 50.9729L47.2779 51.7141L44.9983 45.8772V39.5044Z" fill="#E13C64"/>
<path d="M44.9983 45.8937V34.7405C44.4808 37.3195 43.9243 39.2263 43.0922 40.9055L44.9983 45.8937Z" fill="#E13C64"/>
<path fill-rule="evenodd" clip-rule="evenodd" d="M25.9127 34.7405C24.8582 39.9954 23.6421 42.4595 20.2618 45.8937H25.9127V34.7405Z" fill="#E13C64"/>
<path fill-rule="evenodd" clip-rule="evenodd" d="M21.9943 37.9343C24.3605 35.5303 25.2117 33.8054 25.9499 30.127V37.9343H21.9943ZM29.9055 37.9343C27.5393 35.5303 26.6881 33.8054 25.9499 30.127V37.9343H29.9055Z" fill="#E13C64"/>
<path d="M25.9127 39.5044C24.8926 44.588 23.715 47.8775 21.5948 50.9729L23.6331 51.7141L25.9127 45.8772V39.5044Z" fill="#E13C64"/>
<path d="M25.9127 45.8937V34.7405C26.4302 37.3195 26.9867 39.2263 27.8188 40.9055L25.9127 45.8937Z" fill="#E13C64"/>
<path fill-rule="evenodd" clip-rule="evenodd" d="M35.5399 47.1994L32.3988 54.2155L24.5237 51.8993C24.5237 51.8993 32.2425 33.6584 35.5399 24.1047V47.1994Z" fill="#B0183E"/>
<path fill-rule="evenodd" clip-rule="evenodd" d="M38.646 54.4935L35.5275 47.3751V23.6415C36.1175 25.3507 36.6938 27.0707 37.2705 28.7916C39.1512 34.404 41.0354 40.0265 43.4053 45.3213L46.1365 51.992L38.646 54.4935Z" fill="#B0183E"/>
<path d="M20.469 35.4103C20.4824 35.148 20.4852 34.8313 20.4881 34.5165C20.4885 34.469 20.4889 34.4216 20.4894 34.3744C20.4934 33.9583 20.5 33.5462 20.5414 33.3241L20.5416 33.3232C20.7103 32.4457 21.029 31.5521 21.4505 30.7112C21.8663 29.8819 22.3846 29.1025 22.9387 28.4283L22.9396 28.4272C23.6144 27.6191 24.3835 26.9254 25.2043 26.3031L20.469 35.4103ZM20.469 35.4103C20.2504 35.4205 19.9922 35.4338 19.7475 35.4716C19.7474 35.4716 19.7474 35.4716 19.7473 35.4716L19.7756 35.6547M20.469 35.4103L18.0215 36.9495M19.7756 35.6547C19.3829 35.7148 19.0233 35.8373 18.7804 36.0387C18.4868 36.2825 18.2958 36.611 18.2014 36.9938C18.0794 37.4877 18.1188 38.0793 18.1777 38.5704C18.1168 38.568 18.0542 38.5664 17.9905 38.5657M19.7756 35.6547C20.0232 35.6164 20.2849 35.6043 20.5112 35.5939C20.5564 35.5918 20.6002 35.5898 20.6422 35.5876L19.7756 35.6547ZM17.9905 38.5657C17.9327 38.0746 17.8936 37.4671 18.0215 36.9495M17.9905 38.5657C17.9981 38.6297 18.0059 38.6917 18.0138 38.7513M17.9905 38.5657C17.8623 38.5643 17.7298 38.567 17.5987 38.5755L17.5981 38.5755C17.1712 38.6046 16.7348 38.7022 16.4378 38.9086L16.4373 38.9089C16.2634 39.0306 16.0968 39.2385 15.997 39.5466H15.997L15.9969 39.5471C15.8832 39.9016 15.8242 40.4519 15.8159 41.1041L15.8159 41.1041C15.8028 42.1504 15.8991 43.5277 16.002 44.8106C16.0248 45.0948 16.048 45.374 16.0703 45.6442C16.1494 46.6001 16.219 47.4414 16.2322 47.9783L16.2322 47.9786C16.2336 48.0323 16.2438 48.1659 16.2617 48.3037C16.2785 48.4333 16.3061 48.6016 16.3523 48.7038L16.3525 48.7042C16.4603 48.941 16.6585 49.0319 16.8276 49.027C16.8287 49.027 16.8299 49.027 16.831 49.0269L16.8242 48.8418L18.0138 38.7513M18.0215 36.9495L18.2 36.9935L18.0215 36.9494C18.0215 36.9494 18.0215 36.9494 18.0215 36.9495ZM18.0138 38.7513C17.8816 38.7494 17.7451 38.7517 17.6107 38.7604C17.1956 38.7887 16.7995 38.8829 16.5436 39.0607C16.4056 39.1573 16.2618 39.3304 16.1733 39.6037C16.0684 39.9311 16.0094 40.4587 16.0012 41.1064C15.9854 42.3703 16.1309 44.1289 16.2546 45.6244C16.3338 46.5816 16.4041 47.431 16.4174 47.9738L18.0138 38.7513ZM34.9751 18.8837L34.9749 18.8842C34.6008 19.7524 34.1148 20.5745 33.5561 21.3424L34.9751 18.8837ZM34.9751 18.8837C35.0876 18.6205 35.1653 18.3522 35.2373 18.0962C35.2427 18.0772 35.248 18.0582 35.2533 18.0393C35.3202 17.8009 35.3836 17.5747 35.4689 17.3569C35.5363 17.1853 35.6127 17.0266 35.7192 16.8812C35.8927 16.655 35.8527 16.329 35.6255 16.1533C35.3999 15.9789 35.0739 16.0174 34.897 16.243L34.9751 18.8837ZM33.9135 18.3953L33.9135 18.3953C34.0265 18.1672 34.1101 17.9296 34.1943 17.6823C34.2007 17.6636 34.2071 17.6449 34.2135 17.6261C34.2906 17.3993 34.3706 17.1637 34.4746 16.9366C34.4746 16.9366 34.4747 16.9365 34.4747 16.9365L34.6431 17.0136L33.9135 18.3953ZM33.9135 18.3953C33.5362 19.1571 33.0572 19.8735 32.5146 20.5445C31.9703 21.2172 31.3586 21.8387 30.7165 22.4066L30.7158 22.4073M33.9135 18.3953L30.7158 22.4073M30.7158 22.4073C29.8868 23.1481 28.9644 23.778 28.0189 24.396M30.7158 22.4073L28.0189 24.396M28.0189 24.396C27.8479 24.5077 27.6761 24.6191 27.5039 24.7307M28.0189 24.396L27.5039 24.7307M27.5039 24.7307C26.7272 25.2343 25.9439 25.7422 25.2043 26.3031L27.5039 24.7307ZM17.0317 40.2596L17.214 40.2928C17.214 40.2928 17.2141 40.2928 17.2141 40.2927C17.2141 40.2926 17.2141 40.2926 17.2141 40.2925L17.0317 40.2596ZM21.7584 36.7274C21.8837 36.6054 22.019 36.3638 22.0782 36.022L22.0782 36.0218C22.1301 35.7202 22.1466 35.2261 22.1617 34.7697L22.162 34.7604C22.1779 34.2844 22.1927 33.8591 22.2348 33.6619L22.2351 33.6607C22.3842 32.9414 22.6674 32.2082 23.0252 31.5061L23.0253 31.506C23.3876 30.7939 23.8239 30.1196 24.2962 29.5391L24.297 29.5381C24.8703 28.8236 25.5382 28.2136 26.2494 27.6422C26.9377 27.0894 27.661 26.5787 28.39 26.0641C28.5963 25.9184 28.8031 25.7725 29.0096 25.6251C29.9427 24.9595 30.8673 24.2688 31.7001 23.4668L31.7008 23.4661C32.3673 22.817 32.9994 22.1084 33.5561 21.3424L21.7584 36.7274ZM19.4687 37.6875C19.4687 37.6875 19.4687 37.6874 19.4687 37.6874L19.2851 37.6746L19.4687 37.6875ZM19.5282 38.8088C19.5279 38.806 19.5276 38.8032 19.5273 38.8003L19.5256 38.792L19.344 38.8287L19.5282 38.8088ZM19.607 39.1948L19.6059 39.1893C19.6053 39.1872 19.6048 39.1851 19.6042 39.183L19.4254 39.2315L19.607 39.1948ZM17.2258 40.0472C17.2439 40.0381 17.2648 40.03 17.2887 40.0231C17.2995 39.9914 17.3092 39.965 17.3159 39.9471L17.1426 39.8816L17.2258 40.0472Z" fill="#FF5E5E" stroke="#FF5E5E" stroke-width="0.370595"/>
<path d="M50.4434 35.4103C50.43 35.148 50.4272 34.8313 50.4244 34.5165C50.4239 34.469 50.4235 34.4216 50.4231 34.3744C50.419 33.9583 50.4125 33.5462 50.371 33.3241L50.3708 33.3232C50.2021 32.4457 49.8835 31.5521 49.4619 30.7112C49.0461 29.8819 48.5278 29.1025 47.9737 28.4283L47.9728 28.4272C47.298 27.6191 46.5289 26.9254 45.7081 26.3031L50.4434 35.4103ZM50.4434 35.4103C50.6621 35.4205 50.9202 35.4338 51.1649 35.4716C51.165 35.4716 51.1651 35.4716 51.1652 35.4716L51.1369 35.6547M50.4434 35.4103L52.8909 36.9495M51.1369 35.6547C51.5295 35.7148 51.8891 35.8373 52.132 36.0387C52.4256 36.2825 52.6167 36.611 52.711 36.9938C52.833 37.4877 52.7936 38.0793 52.7347 38.5704C52.7956 38.568 52.8582 38.5664 52.9219 38.5657M51.1369 35.6547C50.8892 35.6164 50.6276 35.6043 50.4012 35.5939C50.356 35.5918 50.3122 35.5898 50.2702 35.5876L51.1369 35.6547ZM52.9219 38.5657C52.9797 38.0746 53.0188 37.4671 52.8909 36.9495M52.9219 38.5657C52.9143 38.6297 52.9065 38.6917 52.8986 38.7513M52.9219 38.5657C53.0501 38.5643 53.1826 38.567 53.3137 38.5755L53.3143 38.5755C53.7413 38.6046 54.1777 38.7022 54.4746 38.9086L54.4751 38.9089C54.649 39.0306 54.8157 39.2385 54.9154 39.5466H54.9154L54.9155 39.5471C55.0292 39.9016 55.0882 40.4519 55.0965 41.1041L55.0965 41.1041C55.1096 42.1504 55.0133 43.5277 54.9104 44.8106C54.8876 45.0948 54.8645 45.374 54.8421 45.6442C54.763 46.6001 54.6934 47.4414 54.6802 47.9783L54.6802 47.9786C54.6788 48.0323 54.6687 48.1659 54.6507 48.3037C54.6339 48.4333 54.6063 48.6016 54.5601 48.7038L54.5599 48.7042C54.4521 48.941 54.254 49.0319 54.0848 49.027C54.0837 49.027 54.0826 49.027 54.0814 49.0269L54.0882 48.8418L52.8986 38.7513M52.8909 36.9495L52.7124 36.9935L52.8909 36.9494C52.8909 36.9494 52.8909 36.9494 52.8909 36.9495ZM52.8986 38.7513C53.0308 38.7494 53.1673 38.7517 53.3017 38.7604C53.7168 38.7887 54.113 38.8829 54.3688 39.0607C54.5068 39.1573 54.6506 39.3304 54.7391 39.6037C54.844 39.9311 54.903 40.4587 54.9112 41.1064C54.927 42.3703 54.7815 44.1289 54.6578 45.6244C54.5786 46.5816 54.5083 47.431 54.495 47.9738L52.8986 38.7513ZM35.9374 18.8837L35.9376 18.8842C36.3116 19.7524 36.7976 20.5745 37.3563 21.3424L35.9374 18.8837ZM35.9374 18.8837C35.8248 18.6205 35.7471 18.3522 35.6751 18.0962C35.6697 18.0772 35.6644 18.0582 35.6591 18.0393C35.5922 17.8009 35.5288 17.5747 35.4436 17.3569C35.3762 17.1853 35.2997 17.0266 35.1932 16.8812C35.0197 16.655 35.0597 16.329 35.2869 16.1533C35.5125 15.9789 35.8385 16.0174 36.0154 16.243L35.9374 18.8837ZM36.9989 18.3953L36.9989 18.3953C36.8859 18.1672 36.8023 17.9296 36.7181 17.6823C36.7117 17.6636 36.7053 17.6449 36.6989 17.6261C36.6219 17.3993 36.5418 17.1637 36.4378 16.9366C36.4378 16.9366 36.4378 16.9365 36.4377 16.9365L36.2693 17.0136L36.9989 18.3953ZM36.9989 18.3953C37.3762 19.1571 37.8552 19.8735 38.3978 20.5445C38.9422 21.2172 39.5538 21.8387 40.1959 22.4066L40.1966 22.4073M36.9989 18.3953L40.1966 22.4073M40.1966 22.4073C41.0256 23.1481 41.948 23.778 42.8936 24.396M40.1966 22.4073L42.8936 24.396M42.8936 24.396C43.0645 24.5077 43.2363 24.6191 43.4085 24.7307M42.8936 24.396L43.4085 24.7307M43.4085 24.7307C44.1852 25.2343 44.9686 25.7422 45.7081 26.3031L43.4085 24.7307ZM53.8807 40.2596L53.6984 40.2928C53.6984 40.2928 53.6984 40.2928 53.6984 40.2927C53.6983 40.2926 53.6983 40.2926 53.6983 40.2925L53.8807 40.2596ZM49.1541 36.7274C49.0287 36.6054 48.8934 36.3638 48.8342 36.022L48.8342 36.0218C48.7823 35.7202 48.7659 35.2261 48.7507 34.7697L48.7504 34.7604C48.7345 34.2844 48.7197 33.8591 48.6776 33.6619L48.6773 33.6607C48.5283 32.9414 48.245 32.2082 47.8872 31.5061L47.8871 31.506C47.5248 30.7939 47.0885 30.1196 46.6162 29.5391L46.6154 29.5381C46.0421 28.8236 45.3742 28.2136 44.663 27.6422C43.9747 27.0894 43.2514 26.5787 42.5224 26.0641C42.3161 25.9184 42.1094 25.7725 41.9028 25.6251C40.9697 24.9595 40.0451 24.2688 39.2124 23.4668L39.2116 23.4661C38.5451 22.817 37.913 22.1084 37.3563 21.3424L49.1541 36.7274ZM51.4437 37.6875C51.4437 37.6875 51.4437 37.6874 51.4437 37.6874L51.6274 37.6746L51.4437 37.6875ZM51.3842 38.8088C51.3845 38.806 51.3848 38.8032 51.3851 38.8003L51.3868 38.792L51.5684 38.8287L51.3842 38.8088ZM51.3054 39.1948L51.3065 39.1893C51.3071 39.1872 51.3076 39.1851 51.3082 39.183L51.4871 39.2315L51.3054 39.1948ZM53.6866 40.0472C53.6685 40.0381 53.6476 40.03 53.6237 40.0231C53.6129 39.9914 53.6032 39.965 53.5965 39.9471L53.7698 39.8816L53.6866 40.0472Z" fill="#FF5E5E" stroke="#FF5E5E" stroke-width="0.370595"/>
<rect x="18.1835" y="52.2078" width="34.161" height="4.63243" transform="rotate(18.1412 18.1835 52.2078)" fill="#FE5E63"/>
<rect width="34.2721" height="4.63243" transform="matrix(-0.950292 0.31136 0.31136 0.950292 53.5576 52.1614)" fill="#FE5E63"/>
<path d="M35.8522 12.6854C35.6606 12.1259 35.1732 10.7522 34.7419 10.0587L35.8522 12.6854ZM35.5528 11.5909C35.7018 11.9753 35.829 12.3339 35.9135 12.5785C35.9974 12.3324 36.1255 11.9706 36.276 11.5834C36.4933 11.0244 36.7599 10.4051 37.0098 10.0054C37.1807 9.73166 37.4499 9.49818 37.7562 9.30112C38.0633 9.10357 38.413 8.93921 38.751 8.80588C39.1733 8.63928 39.5808 8.51978 39.8701 8.44412C39.582 8.36904 39.1808 8.25116 38.7649 8.08735C38.4263 7.95401 38.0758 7.78938 37.7678 7.5913C37.4606 7.3937 37.1903 7.15944 37.0184 6.88475L37.0183 6.88453C36.7684 6.48264 36.5028 5.86232 36.2861 5.30334C36.1371 4.919 36.0099 4.56034 35.9254 4.31572C35.8415 4.5619 35.7134 4.92364 35.5629 5.31086C35.3456 5.86988 35.0789 6.48913 34.829 6.88892C34.6582 7.16261 34.389 7.39609 34.0826 7.59315C33.7756 7.7907 33.4259 7.95506 33.0879 8.08839C32.6656 8.25499 32.2581 8.37449 31.9688 8.45015C32.2569 8.52523 32.6581 8.64311 33.074 8.80692C33.4125 8.94026 33.7631 9.10489 34.0711 9.30297C34.3783 9.50057 34.6486 9.73483 34.8205 10.0095L34.8206 10.0097C35.0705 10.4116 35.3361 11.032 35.5528 11.5909Z" fill="#FF5E5E" stroke="#FF5E5E" stroke-width="0.185297"/>
</svg>
