<svg width="167" height="167" viewBox="0 0 167 167" fill="none" xmlns="http://www.w3.org/2000/svg">
<g filter="url(#filter0_b_260_2960)">
<rect width="167" height="167" rx="34.6219" fill="#B0B0B0" fill-opacity="0.3"/>
<rect x="22.1211" y="22.1213" width="125.25" height="125.25" rx="32.5854" fill="url(#paint0_linear_260_2960)"/>
<g clip-path="url(#clip0_260_2960)">
<path d="M94.3027 60.8556C98.2611 60.8556 101.47 57.6467 101.47 53.6883C101.47 49.7299 98.2611 46.5211 94.3027 46.5211C90.3443 46.5211 87.1355 49.7299 87.1355 53.6883C87.1355 57.6467 90.3443 60.8556 94.3027 60.8556ZM70.6643 93.9248L68.4544 99.0793H58.4666C55.8282 99.0793 53.6885 101.219 53.6885 103.857C53.6885 106.496 55.8282 108.636 58.4666 108.636H70.0312C72.9056 108.636 75.4933 106.927 76.6176 104.292L77.9301 101.228L76.3369 100.287C73.7507 98.7597 71.8484 96.4991 70.6643 93.9248ZM111.026 79.9667H104.452L100.561 72.0155C98.6942 68.2005 95.2673 65.4112 91.3358 64.4093L80.7223 61.2527C76.4967 60.2374 72.0963 61.1706 68.6515 63.812L62.7281 68.3528C60.6332 69.9579 60.236 72.9562 61.8442 75.0511C63.4523 77.1461 66.4491 77.5388 68.5425 75.9351L74.4689 71.3944C75.6142 70.5149 77.073 70.1998 78.2422 70.4776L80.4371 71.1301L74.8437 84.1789C72.9593 88.5808 74.6481 93.7367 78.7708 96.1706L91.4597 103.662L87.358 116.761C86.5696 119.279 87.9717 121.959 90.4892 122.748C90.9655 122.897 91.4463 122.968 91.9196 122.968C93.9518 122.968 95.8362 121.659 96.4768 119.616L101.201 104.526C102.084 101.425 100.77 98.0938 97.97 96.405L88.8258 91.0087L93.5009 79.3201L96.5276 85.5063C97.7221 87.9462 100.249 89.5215 102.965 89.5215H111.026C113.665 89.5215 115.804 87.3817 115.804 84.7433C115.804 82.1049 113.665 79.9667 111.026 79.9667Z" fill="white"/>
</g>
</g>
<defs>
<filter id="filter0_b_260_2960" x="-33.4" y="-33.4" width="233.8" height="233.8" filterUnits="userSpaceOnUse" color-interpolation-filters="sRGB">
<feFlood flood-opacity="0" result="BackgroundImageFix"/>
<feGaussianBlur in="BackgroundImageFix" stdDeviation="16.7"/>
<feComposite in2="SourceAlpha" operator="in" result="effect1_backgroundBlur_260_2960"/>
<feBlend mode="normal" in="SourceGraphic" in2="effect1_backgroundBlur_260_2960" result="shape"/>
</filter>
<linearGradient id="paint0_linear_260_2960" x1="8.14617" y1="-12.2196" x2="159.526" y2="177.872" gradientUnits="userSpaceOnUse">
<stop offset="0.0956469" stop-color="#B0183E"/>
<stop offset="0.504961" stop-color="#F2D2A6"/>
<stop offset="0.89999" stop-color="#E13C64"/>
</linearGradient>
<clipPath id="clip0_260_2960">
<rect width="62.1159" height="76.4504" fill="white" transform="translate(53.688 46.5211)"/>
</clipPath>
</defs>
</svg>
