<svg width="167" height="167" viewBox="0 0 167 167" fill="none" xmlns="http://www.w3.org/2000/svg">
<g filter="url(#filter0_b_260_2951)">
<rect width="167" height="167" rx="34.6219" fill="#B0B0B0" fill-opacity="0.3"/>
<rect x="22.1211" y="22.1212" width="125.25" height="125.25" rx="32.5854" fill="url(#paint0_linear_260_2951)"/>
<g clip-path="url(#clip0_260_2951)">
<path d="M116.194 99.1223V52.3994C116.194 50.1531 114.847 48.8053 112.6 48.8053H66.7759C59.1385 48.8053 53.2981 54.6457 53.2981 62.2831V107.209C53.2981 114.846 59.1385 120.687 66.7759 120.687H112.6C114.397 120.687 116.194 119.339 116.194 117.093V114.846C116.194 113.948 115.745 113.049 114.847 112.151C114.397 109.905 114.397 103.615 114.847 101.818C115.745 101.369 116.194 100.47 116.194 99.1223ZM95.5678 69.2775C95.652 69.1076 95.8149 69.022 95.9777 69.022C96.1406 69.022 96.3034 69.1076 96.3877 69.2775L97.9573 72.4574L101.467 72.967C101.842 73.0218 101.992 73.4823 101.721 73.7476L99.1815 76.2227L99.781 79.7171C99.8315 80.0134 99.5971 80.2534 99.3303 80.2534C99.2601 80.2534 99.1871 80.2366 99.1169 80.2001L95.9777 78.5505L92.8385 80.2001C92.7683 80.2366 92.6953 80.2534 92.6251 80.2534C92.3584 80.2534 92.1239 80.0134 92.1745 79.7171L92.7739 76.2227L90.2342 73.7476C89.9619 73.4823 90.1121 73.0218 90.4883 72.967L93.9968 72.4574L95.5678 69.2775ZM87.4404 59.5889C89.3596 59.5889 91.2675 59.9385 93.1095 60.6292C93.2487 60.6293 93.3862 60.66 93.5123 60.7191C93.6384 60.7781 93.75 60.8642 93.8392 60.9711C93.9284 61.078 93.993 61.2032 94.0285 61.3378C94.064 61.4724 94.0696 61.6132 94.0447 61.7502C94.0199 61.8872 93.9652 62.017 93.8847 62.1306C93.8041 62.2442 93.6997 62.3387 93.5786 62.4075C93.4575 62.4762 93.3229 62.5176 93.1841 62.5286C93.0453 62.5396 92.9057 62.52 92.7753 62.4712C92.6813 62.4712 92.3415 62.4417 92.1955 62.4417C84.8515 62.4417 78.8778 68.4155 78.8778 75.7595C78.8778 83.102 84.8515 89.0772 92.1955 89.0772C92.3401 89.0772 92.6841 89.0477 92.7753 89.0477C93.3271 89.0477 93.73 89.4885 93.73 89.9996C93.73 90.4179 93.4577 90.7731 93.0814 90.9009C91.2465 91.5846 89.3483 91.9314 87.439 91.9314C78.5226 91.9328 71.2685 84.6772 71.2685 75.7609C71.2685 66.8431 78.5226 59.5889 87.4404 59.5889ZM106.76 111.702H66.7759C64.0803 111.702 62.2833 109.905 62.2833 107.209C62.2833 104.513 64.5296 102.716 66.7759 102.716H106.76V111.702Z" fill="white"/>
</g>
</g>
<defs>
<filter id="filter0_b_260_2951" x="-33.4" y="-33.4" width="233.8" height="233.8" filterUnits="userSpaceOnUse" color-interpolation-filters="sRGB">
<feFlood flood-opacity="0" result="BackgroundImageFix"/>
<feGaussianBlur in="BackgroundImageFix" stdDeviation="16.7"/>
<feComposite in2="SourceAlpha" operator="in" result="effect1_backgroundBlur_260_2951"/>
<feBlend mode="normal" in="SourceGraphic" in2="effect1_backgroundBlur_260_2951" result="shape"/>
</filter>
<linearGradient id="paint0_linear_260_2951" x1="8.14617" y1="-12.2197" x2="159.526" y2="177.872" gradientUnits="userSpaceOnUse">
<stop offset="0.0956469" stop-color="#B0183E"/>
<stop offset="0.504961" stop-color="#F2D2A6"/>
<stop offset="0.89999" stop-color="#E13C64"/>
</linearGradient>
<clipPath id="clip0_260_2951">
<rect width="62.8963" height="71.8815" fill="white" transform="translate(53.2981 48.8053)"/>
</clipPath>
</defs>
</svg>
