<svg width="72" height="85" viewBox="0 0 72 85" fill="none" xmlns="http://www.w3.org/2000/svg">
<path d="M68.8696 0.481445H11.3475C5.306 0.481445 0.390991 5.39662 0.390991 11.4381V73.5254C0.390991 79.5669 5.30617 84.4821 11.3476 84.4821H68.8698C70.3824 84.4821 71.609 83.2557 71.609 81.7429C71.609 80.5754 71.609 5.34527 71.609 3.22065C71.6086 1.70782 70.3823 0.481445 68.8696 0.481445ZM5.86923 11.4381C5.86923 8.41736 8.32674 5.95985 11.3475 5.95985V62.5688C9.35246 62.5688 7.48214 63.1073 5.86923 64.0427V11.4381ZM66.1304 79.0037H11.3475C8.32674 79.0037 5.86923 76.5462 5.86923 73.5254C5.86923 70.5047 8.32674 68.0472 11.3475 68.0472H66.1304V79.0037ZM66.1304 62.5688H16.8257V5.95969H66.1304V62.5688Z" fill="url(#paint0_linear_101_572)"/>
<path d="M56.2352 37.738C45.81 43.4625 33.9298 34.24 36.3009 22.9581C36.7816 20.6706 34.35 18.87 32.302 19.9938C26.1353 23.3801 22.3043 29.7988 22.3043 36.7452C22.3043 47.3178 30.9058 55.9193 41.4784 55.9193C50.6848 55.9193 58.4056 49.405 60.2344 40.7024C60.7147 38.4159 58.2839 36.6138 56.2352 37.738ZM41.4781 50.4409C33.9262 50.4409 27.7824 44.297 27.7824 36.7452C27.7824 33.6743 28.8391 30.7452 30.6966 28.3854C32.1499 39.0764 42.2114 46.4005 52.5894 44.732C50.0717 48.2159 45.9711 50.4409 41.4781 50.4409Z" fill="url(#paint1_linear_101_572)"/>
<path d="M60.35 17.4842C60.0276 16.4926 59.1707 15.7699 58.1389 15.6201L55.9311 15.2992L54.9439 13.2987C54.4824 12.3637 53.5303 11.772 52.4876 11.772C51.4448 11.772 50.4927 12.3637 50.0312 13.2987L49.044 15.2992L46.8364 15.6201C45.8046 15.7699 44.9474 16.4926 44.6253 17.4843C44.3029 18.4759 44.5718 19.5645 45.3185 20.2921L46.9158 21.8492L46.539 24.0479C46.3627 25.0756 46.7854 26.1139 47.6288 26.7268C48.4708 27.3385 49.5894 27.4213 50.5135 26.9352L52.4879 25.8972L54.4624 26.9354C55.3854 27.4203 56.5037 27.3396 57.3471 26.7268C58.1906 26.1141 58.6132 25.0754 58.437 24.0479L58.0601 21.8492L59.6575 20.2921C60.4035 19.5645 60.672 18.4759 60.35 17.4842Z" fill="url(#paint2_linear_101_572)"/>
<defs>
<linearGradient id="paint0_linear_101_572" x1="0.816037" y1="-59.0195" x2="97.978" y2="-46.5386" gradientUnits="userSpaceOnUse">
<stop stop-color="#B0183E"/>
<stop offset="0.561222" stop-color="#FCEDD8"/>
<stop offset="0.89999" stop-color="#E13C64"/>
</linearGradient>
<linearGradient id="paint1_linear_101_572" x1="22.531" y1="-6.04071" x2="73.9233" y2="2.1155" gradientUnits="userSpaceOnUse">
<stop stop-color="#B0183E"/>
<stop offset="0.561222" stop-color="#FCEDD8"/>
<stop offset="0.89999" stop-color="#E13C64"/>
</linearGradient>
<linearGradient id="paint2_linear_101_572" x1="44.5865" y1="0.808343" x2="66.2351" y2="4.19745" gradientUnits="userSpaceOnUse">
<stop stop-color="#B0183E"/>
<stop offset="0.561222" stop-color="#FCEDD8"/>
<stop offset="0.89999" stop-color="#E13C64"/>
</linearGradient>
</defs>
</svg>
